PathFileType	4	(X/Y/Z)	C:\Users\chris\Documents\GitHub\baseballds\vids\pitch4_Sports2D\pitch4_Sports2D_px_person00.trc
DataRate	CameraRate	NumFrames	NumMarkers	Units	OrigDataRate	OrigDataStartFrame	OrigNumFrames
30	30	9	22	m	30	0	238
Frame#	Time	Hip			RHip			RKnee			RAnkle			RBigToe			RSmallToe			RHeel			LHip			LKnee			LAnkle			LBigToe			LSmallToe			LHeel			Neck			Head			Nose			RShoulder			RElbow			RWrist			LShoulder			LElbow			LWrist		
		X1	Y1	Z1	X2	Y2	Z2	X3	Y3	Z3	X4	Y4	Z4	X5	Y5	Z5	X6	Y6	Z6	X7	Y7	Z7	X8	Y8	Z8	X9	Y9	Z9	X10	Y10	Z10	X11	Y11	Z11	X12	Y12	Z12	X13	Y13	Z13	X14	Y14	Z14	X15	Y15	Z15	X16	Y16	Z16	X17	Y17	Z17	X18	Y18	Z18	X19	Y19	Z19	X20	Y20	Z20	X21	Y21	Z21	X22	Y22	Z22
0	0.0	294.14913457159696	927.0836003430377	0.0	326.9968865658544	946.7917596093532	0.0	363.129335826008	1239.1365825838625	0.0	300.71904783393427	1541.3349884858544	0.0	441.9631707130185	1597.1756762711439	0.0	415.6853036420643	1613.5995856311577	0.0	267.8722988573642	1580.752231138509	0.0	271.15570558198107	943.5069368894042	0.0	281.01041623876273	1219.427976347616	0.0	274.44103494906153	1459.217038176422	0.0	409.11624351457164	1492.0647589127243	0.0	382.83792000286337	1475.6402071033353	0.0	241.59334758648782	1501.9195348012117	0.0	353.275379782962	496.7804010956661	0.0	399.2622011283819	329.256858422495	0.0	445.24822804639865	437.6543454088105	0.0	333.566867124283	575.6143178834957	0.0	310.57292324228166	795.6936474885595	0.0	405.8314966694004	969.786042381961	0.0	290.86401852684367	555.9057471854697	0.0	264.58580229222105	779.2681224276465	0.0	340.13653834023944	946.7928487868963	0.0
1	0.03333333333333333	296.42372870452914	928.8978668135962	0.0	325.4149527708527	950.1898292142419	0.0	363.7906589082878	1239.7734000789142	0.0	301.17939258155036	1535.9047152705873	0.0	435.57733810369837	1596.850343099149	0.0	407.36927296608206	1612.5129702179875	0.0	269.2003392001119	1579.3516613005304	0.0	278.249815608002	947.6907423320945	0.0	281.57835224142525	1218.333063516931	0.0	275.31972702100813	1460.3582975092327	0.0	414.20087863226524	1503.6933824000507	0.0	390.0508102204993	1487.3240951659561	0.0	240.88245640007108	1497.7531482204795	0.0	353.99436920744324	495.4745808747624	0.0	395.30730668475974	329.79007854760255	0.0	447.5688307829446	433.8028181215119	0.0	335.7667697277359	571.335412783571	0.0	310.7119290576006	792.3294038944302	0.0	403.8011309536108	967.6956855309306	0.0	293.8839409315887	551.5970599958914	0.0	267.54754153598145	776.0261524930465	0.0	347.3592056518874	944.6137671955493	0.0
2	0.06666666666666667	298.1552658747152	930.0005323116657	0.0	324.16635902304847	950.4033521890289	0.0	363.54129902377184	1240.4284775550846	0.0	302.4274893293156	1534.365436218437	0.0	434.21779020490044	1597.444512652578	0.0	405.56837705650435	1612.0768854916396	0.0	270.0724868363567	1580.0697731221999	0.0	280.08222329079405	948.1653606793692	0.0	281.16360202895646	1218.4318840983876	0.0	276.12137043884275	1463.7103826346677	0.0	417.82803598670137	1511.8909458735247	0.0	394.54957765944243	1495.514640139352	0.0	240.60633184846486	1498.7298376604692	0.0	354.3981938531801	495.0056732214616	0.0	393.17427916161535	330.79887792675885	0.0	448.45413369176276	432.23429600313654	0.0	336.505329507845	569.3365496360957	0.0	310.01867895651435	790.7534009945795	0.0	402.85519048118874	968.087907911237	0.0	294.3314586835878	549.733344328833	0.0	267.19649102006065	773.9406766668416	0.0	351.90856904549815	943.820864476186	0.0
3	0.1	299.2536808188249	930.700222759822	0.0	323.31251148815704	948.0856050006684	0.0	362.2172640164984	1241.3994887639878	0.0	303.93411645614646	1537.3261582505784	0.0	437.25910485761784	1599.7977000335009	0.0	408.4864150521945	1613.508718011096	0.0	270.2567159056698	1583.107732416854	0.0	277.508156490709	945.2719273948093	0.0	279.57054045573824	1220.3083188039857	0.0	277.2485499632159	1469.1586743953717	0.0	420.7593742925406	1515.9330196779429	0.0	396.6295217536448	1500.1191044880834	0.0	241.04067859934662	1504.8751110330388	0.0	354.64922919061155	495.05626004871147	0.0	392.9322264476851	332.16240294227896	0.0	447.87626747764807	432.6230011218841	0.0	335.29653208089155	568.2308197762381	0.0	309.31725503329585	791.4355256456796	0.0	403.08560510534477	971.4443156328289	0.0	293.06485499944654	550.0028740165602	0.0	265.1933122239037	774.3056981355252	0.0	353.9672283101438	944.8840275922462	0.0
4	0.13333333333333333	300.38860193258427	932.0033691346516	0.0	323.5696985495718	947.1060348972786	0.0	361.2490785186417	1241.8039048921687	0.0	304.5207945372506	1540.503464582307	0.0	439.328506413128	1603.0757726344145	0.0	409.4887993208408	1616.4374235785187	0.0	269.7088066468166	1585.911471394045	0.0	276.3119315784526	943.4644890427287	0.0	278.5147233096105	1222.5033153770391	0.0	278.29454603385767	1471.7318696291015	0.0	422.5325850019435	1515.396601534908	0.0	396.29813551632765	1500.1849267372522	0.0	241.80906260453034	1509.048700329402	0.0	354.77129851064814	495.5036486420197	0.0	393.562082456369	333.54633012675333	0.0	446.7533640838651	433.84361175412175	0.0	333.1394663479276	567.8732710042232	0.0	309.6687975781767	793.719679292233	0.0	403.9380673861275	974.7350412888832	0.0	292.60766961849606	551.2811733359852	0.0	265.91350177678174	777.4763648608274	0.0	354.9260365142362	947.1273977486671	0.0
5	0.16666666666666666	301.8006426941058	933.8814737654434	0.0	325.06456241146265	949.5263085966162	0.0	361.83171032496915	1240.8731689410822	0.0	303.95044805835585	1540.5782998369148	0.0	437.75327512216086	1605.3873241942629	0.0	406.698614804043	1618.8899645769761	0.0	268.7086544019811	1586.523214583373	0.0	279.2315952363451	945.505175204247	0.0	279.3658624417548	1222.7933426000359	0.0	278.20602375534594	1468.132783412752	0.0	421.4516116279923	1511.6679871875292	0.0	393.1463257858478	1495.6402410315366	0.0	242.10130853193382	1505.8404463137229	0.0	354.57965690138565	496.7161932440356	0.0	394.15096758256425	334.45357938614234	0.0	445.9097054946328	435.32383157054494	0.0	331.2028282472793	569.6308579953917	0.0	310.40341876284504	796.1444486663504	0.0	404.7029188976927	975.0876223946251	0.0	293.30548702452296	553.3652947511188	0.0	269.6895356997354	781.3108683766861	0.0	355.7638029549631	949.1765516346932	0.0
6	0.2	302.5685308052651	935.1065342398601	0.0	326.19345417614653	952.8053020919042	0.0	363.2182653543995	1239.6692575532109	0.0	303.14105179726266	1540.3165243059277	0.0	435.43222657519686	1606.3599343992987	0.0	404.265466072602	1620.2013145087162	0.0	268.0813279305572	1586.3286468582478	0.0	282.45883035565765	948.8109664480439	0.0	280.64863007069624	1221.524745752394	0.0	277.31585927765946	1462.9131754496789	0.0	418.7009939334198	1508.7130730564568	0.0	389.87110560410304	1491.1789632126843	0.0	241.96091413700668	1499.70079197821	0.0	354.0322675755855	498.76563402697343	0.0	394.18436606635476	334.2698239398065	0.0	445.45479410744036	436.71654470967667	0.0	329.32605793103187	572.5036960608085	0.0	310.0114780134389	797.7519137059029	0.0	405.25321544843143	973.9307374378392	0.0	293.77070831457615	556.2229777592736	0.0	272.87149727735306	783.2958530977078	0.0	356.7267136239173	950.2617526289541	0.0
7	0.23333333333333334	302.39094592419195	935.4401908748248	0.0	325.8039457651058	954.2958757693827	0.0	364.6165036940558	1239.3611336270562	0.0	302.9239050834782	1542.465450703889	0.0	434.95894970772645	1607.2584810921055	0.0	404.6658772264419	1621.377199242137	0.0	268.23025199972705	1586.8563344177528	0.0	282.7783578213499	950.4330837685579	0.0	280.69578245175524	1220.846717611617	0.0	276.7371430699119	1460.7988068124175	0.0	416.8547234673052	1507.4984732566038	0.0	388.98342112125005	1489.4943692642573	0.0	241.98640897261404	1496.657699070582	0.0	353.10784731223674	501.20526889922564	0.0	393.8279487794833	333.5374857307586	0.0	445.5240797642873	438.24331586180426	0.0	326.71953377651084	574.7976383471652	0.0	308.0616102352428	799.1566876985354	0.0	406.05410432626	973.7667658063137	0.0	294.14146829159955	559.495978922567	0.0	274.1265225604108	784.2928540187357	0.0	357.38806904892016	951.2493344342295	0.0
8	0.26666666666666666	302.52786707368784	936.5954638316301	0.0	324.830242683022	955.7137582936849	0.0	366.2099331726871	1240.1843621716346	0.0	303.4121025599289	1544.5151696502762	0.0	435.50131018563644	1609.0364645757563	0.0	405.6835763960012	1622.9734169009519	0.0	268.28145097322187	1587.6502692921968	0.0	283.01717047426314	952.0028534282357	0.0	280.3024000044831	1221.5524728053697	0.0	276.1254311516333	1460.8763413341424	0.0	416.1807906647395	1506.7022620897123	0.0	388.8029184189601	1488.4989626297752	0.0	241.53288674676784	1496.3127094545846	0.0	351.90427849179264	502.94189957381894	0.0	393.3250145350363	334.28445084675457	0.0	446.80627715273926	440.0816115485161	0.0	323.4218984971892	576.4179306694556	0.0	305.2720382306395	800.8664005848862	0.0	406.80255826929454	974.5022203237779	0.0	295.57774522532327	562.7630623839575	0.0	275.7571252541475	787.114598728342	0.0	357.9300798521104	953.6361033064569	0.0
